<?xml version="1.0" encoding="utf-8" ?>
<svg version="1.1" xmlns="http://www.w3.org/2000/svg" viewBox="0 0 30 20">
    <!-- Envelope inside BG -->
    <path d="M0,0 h25 v20 h-25 z" fill="#ddd" />
    <path d="M0,1 h25 m0,3 h-25 m0,3 h25 m0,3 h-25 m0,3 h25 m0,3 h-25 m0,3 h25"
          stroke="#eee" fill="none" />
    <!-- Envelope body -->
    <path d="M0,0 h25 l-5,10 l5,10 h-25 z" fill="#efae61" />
    <!-- Metal clip on body -->
    <path d="M18,6 h0.5 v3 l-0.5,1 l0.5,1 v3 h-1 v-3 l0.5,-1 l-0.5,-1 v-3 z" fill="#ddd" />
    <!-- Top flap -->
    <path d="M25,0 l5,3 v14 l-5,3 z M28.5,10 a1,1 0 1 0 0 0.0001 z" fill="#efae61" />

</svg>