<?xml version="1.0" encoding="utf-8" ?>
<svg version="1.1"
     xmlns="http://www.w3.org/2000/svg"
     xmlns:xlink="http://www.w3.org/1999/xlink"
     viewBox="0 0 400 400">
    <defs>
        <g id="stamp">
            <!-- Rim of stamp -->
            <path d="M8,4
                    l4,-4 l4,4 l4,-4 l4,4 l4,-4 l4,4 l4,-4 l4,4 l4,-4 l4,4 l4,-4 l4,4 l4,-4 l4,4 l4,-4 l4,4 h4 v4
                    l4,4 l-4,4 l4,4 l-4,4 l4,4 l-4,4 l4,4 l-4,4 l4,4 l-4,4 l4,4 l-4,4 l4,4 l-4,4 l4,4 l-4,4 v4 h-4
                    l-4,4 l-4,-4 l-4,4 l-4,-4 l-4,4 l-4,-4 l-4,4 l-4,-4 l-4,4 l-4,-4 l-4,4 l-4,-4 l-4,4 l-4,-4 l-4,4 l-4,-4 h-4 v-4
                    l-4,-4 l4,-4 l-4,-4 l4,-4 l-4,-4 l4,-4 l-4,-4 l4,-4 l-4,-4 l4,-4 l-4,-4 l4,-4 l-4,-4 l4,-4 l-4,-4 l4,-4 v-4 h4 z" fill="white" />
            <!-- Background of stamp -->
            <rect fill="#81d8d0" x="10" y="10" width="60" height="60" />
            <!-- Inside of stamp-->
            <path d="M14,19 h52 m0,10 h-52 m0,10 h52 m0,10 h-52 m0,10 h52" stroke="white" fill="none" stroke-width="4" />
        </g>
    </defs>
    <!--<rect width="100%" height="100%" />-->
    <use xlink:href="#stamp" transform="translate(30, 30) rotate(30) scale(0.5, 0.5)" />
    <use xlink:href="#stamp" transform="translate(100, 180) rotate(-30) scale(0.5, 0.5)" />
    <use xlink:href="#stamp" transform="translate(300, 50) rotate(-30) scale(0.5, 0.5)" />
    <use xlink:href="#stamp" transform="translate(250, 200) rotate(10) scale(0.5, 0.5)" />
    <use xlink:href="#stamp" transform="translate(80, 320) rotate(-50) scale(0.5, 0.5)" />
    <use xlink:href="#stamp" transform="translate(330, 340) rotate(-50) scale(0.5, 0.5)" />
</svg>
